<?xml version="1.0" encoding="UTF-8" standalone="no"?>
<svg width="843px" height="32px" viewBox="0 0 843 32" version="1.1" xmlns="http://www.w3.org/2000/svg" xmlns:xlink="http://www.w3.org/1999/xlink" xmlns:sketch="http://www.bohemiancoding.com/sketch/ns">
    <!-- Generator: Sketch 3.3.3 (12072) - http://www.bohemiancoding.com/sketch -->
    <title>Untitled</title>
    <desc>Created with Sketch.</desc>
    <defs></defs>
    <g id="Page-1" stroke="none" stroke-width="1" fill="none" fill-rule="evenodd" sketch:type="MSPage">
        <g id="bottom_pic" sketch:type="MSLayerGroup">
            <g id="Page-1" sketch:type="MSShapeGroup">
                <g id="Group">
                    <path d="M25,0 L50,32 L0,32 L25,0 Z" id="Triangle-9" fill="#83C893"></path>
                    <path d="M74,0 L99,32 L49,32 L74,0 Z" id="Triangle-9-Copy" fill="#75AED6"></path>
                    <path d="M124,0 L149,32 L99,32 L124,0 Z" id="Triangle-9-Copy-2" fill="#FF6586"></path>
                    <path d="M174,0 L199,32 L149,32 L174,0 Z" id="Triangle-9-Copy-5" fill="#83C893"></path>
                    <path d="M224,0 L249,32 L199,32 L224,0 Z" id="Triangle-9-Copy-3" fill="#75AED6"></path>
                    <path d="M274,0 L299,32 L249,32 L274,0 Z" id="Triangle-9-Copy-4" fill="#FF6586"></path>
                    <path d="M324,0 L349,32 L299,32 L324,0 Z" id="Triangle-9-Copy-11" fill="#83C893"></path>
                    <path d="M374,0 L399,32 L349,32 L374,0 Z" id="Triangle-9-Copy-6" fill="#75AED6"></path>
                    <path d="M424,0 L449,32 L399,32 L424,0 Z" id="Triangle-9-Copy-7" fill="#FF6586"></path>
                    <path d="M473,0 L498,32 L448,32 L473,0 Z" id="Triangle-9-Copy-8" fill="#83C893"></path>
                    <path d="M523,0 L548,32 L498,32 L523,0 Z" id="Triangle-9-Copy-9" fill="#75AED6"></path>
                    <path d="M573,0 L598,32 L548,32 L573,0 Z" id="Triangle-9-Copy-10" fill="#FF6586"></path>
                    <path d="M623,0 L648,32 L598,32 L623,0 Z" id="Triangle-9-Copy-17" fill="#83C893"></path>
                    <path d="M669,0 L694,32 L644,32 L669,0 Z" id="Triangle-9-Copy-12" fill="#75AED6"></path>
                    <path d="M719,0 L744,32 L694,32 L719,0 Z" id="Triangle-9-Copy-13" fill="#FF6586"></path>
                    <path d="M769,0 L794,32 L744,32 L769,0 Z" id="Triangle-9-Copy-14" fill="#83C893"></path>
                    <path d="M818,0 L843,32 L793,32 L818,0 Z" id="Triangle-9-Copy-15" fill="#75AED6"></path>
                </g>
            </g>
        </g>
    </g>
</svg>