<?xml version="1.0" encoding="UTF-8" standalone="no"?>
<svg width="843px" height="32px" viewBox="0 0 843 32" version="1.1" xmlns="http://www.w3.org/2000/svg" xmlns:xlink="http://www.w3.org/1999/xlink" xmlns:sketch="http://www.bohemiancoding.com/sketch/ns">
    <!-- Generator: Sketch 3.3.3 (12072) - http://www.bohemiancoding.com/sketch -->
    <title>Untitled</title>
    <desc>Created with Sketch.</desc>
    <defs></defs>
    <g id="Page-1" stroke="none" stroke-width="1" fill="none" fill-rule="evenodd" sketch:type="MSPage">
        <g id="Group" sketch:type="MSLayerGroup">
            <polygon id="Triangle-9" fill="#83C893" sketch:type="MSShapeGroup" points="25 0 50 32 0 32 "></polygon>
            <polygon id="Triangle-9-Copy" fill="#75AED6" sketch:type="MSShapeGroup" points="74 0 99 32 49 32 "></polygon>
            <polygon id="Triangle-9-Copy-2" fill="#FF6586" sketch:type="MSShapeGroup" points="124 0 149 32 99 32 "></polygon>
            <polygon id="Triangle-9-Copy-5" fill="#83C893" sketch:type="MSShapeGroup" points="174 0 199 32 149 32 "></polygon>
            <polygon id="Triangle-9-Copy-3" fill="#75AED6" sketch:type="MSShapeGroup" points="224 0 249 32 199 32 "></polygon>
            <polygon id="Triangle-9-Copy-4" fill="#FF6586" sketch:type="MSShapeGroup" points="274 0 299 32 249 32 "></polygon>
            <polygon id="Triangle-9-Copy-11" fill="#83C893" sketch:type="MSShapeGroup" points="324 0 349 32 299 32 "></polygon>
            <polygon id="Triangle-9-Copy-6" fill="#75AED6" sketch:type="MSShapeGroup" points="374 0 399 32 349 32 "></polygon>
            <polygon id="Triangle-9-Copy-7" fill="#FF6586" sketch:type="MSShapeGroup" points="424 0 449 32 399 32 "></polygon>
            <polygon id="Triangle-9-Copy-8" fill="#83C893" sketch:type="MSShapeGroup" points="473 0 498 32 448 32 "></polygon>
            <polygon id="Triangle-9-Copy-9" fill="#75AED6" sketch:type="MSShapeGroup" points="523 0 548 32 498 32 "></polygon>
            <polygon id="Triangle-9-Copy-10" fill="#FF6586" sketch:type="MSShapeGroup" points="573 0 598 32 548 32 "></polygon>
            <polygon id="Triangle-9-Copy-17" fill="#83C893" sketch:type="MSShapeGroup" points="623 0 648 32 598 32 "></polygon>
            <polygon id="Triangle-9-Copy-12" fill="#75AED6" sketch:type="MSShapeGroup" points="669 0 694 32 644 32 "></polygon>
            <polygon id="Triangle-9-Copy-13" fill="#FF6586" sketch:type="MSShapeGroup" points="719 0 744 32 694 32 "></polygon>
            <polygon id="Triangle-9-Copy-14" fill="#83C893" sketch:type="MSShapeGroup" points="769 0 794 32 744 32 "></polygon>
            <polygon id="Triangle-9-Copy-15" fill="#75AED6" sketch:type="MSShapeGroup" points="818 0 843 32 793 32 "></polygon>
        </g>
        <g id="Group-Copy" sketch:type="MSLayerGroup" transform="translate(0.000000, 9.000000)" fill="#FFFFFF">
            <polygon id="Triangle-9" sketch:type="MSShapeGroup" points="25 0 50 32 0 32 "></polygon>
            <polygon id="Triangle-9-Copy" sketch:type="MSShapeGroup" points="74 0 99 32 49 32 "></polygon>
            <polygon id="Triangle-9-Copy-2" sketch:type="MSShapeGroup" points="124 0 149 32 99 32 "></polygon>
            <polygon id="Triangle-9-Copy-5" sketch:type="MSShapeGroup" points="174 0 199 32 149 32 "></polygon>
            <polygon id="Triangle-9-Copy-3" sketch:type="MSShapeGroup" points="224 0 249 32 199 32 "></polygon>
            <polygon id="Triangle-9-Copy-4" sketch:type="MSShapeGroup" points="274 0 299 32 249 32 "></polygon>
            <polygon id="Triangle-9-Copy-11" sketch:type="MSShapeGroup" points="324 0 349 32 299 32 "></polygon>
            <polygon id="Triangle-9-Copy-6" sketch:type="MSShapeGroup" points="374 0 399 32 349 32 "></polygon>
            <polygon id="Triangle-9-Copy-7" sketch:type="MSShapeGroup" points="424 0 449 32 399 32 "></polygon>
            <polygon id="Triangle-9-Copy-8" sketch:type="MSShapeGroup" points="473 0 498 32 448 32 "></polygon>
            <polygon id="Triangle-9-Copy-9" sketch:type="MSShapeGroup" points="523 0 548 32 498 32 "></polygon>
            <polygon id="Triangle-9-Copy-10" sketch:type="MSShapeGroup" points="573 0 598 32 548 32 "></polygon>
            <polygon id="Triangle-9-Copy-17" sketch:type="MSShapeGroup" points="623 0 648 32 598 32 "></polygon>
            <polygon id="Triangle-9-Copy-12" sketch:type="MSShapeGroup" points="669 0 694 32 644 32 "></polygon>
            <polygon id="Triangle-9-Copy-13" sketch:type="MSShapeGroup" points="719 0 744 32 694 32 "></polygon>
            <polygon id="Triangle-9-Copy-14" sketch:type="MSShapeGroup" points="769 0 794 32 744 32 "></polygon>
            <polygon id="Triangle-9-Copy-15" sketch:type="MSShapeGroup" points="818 0 843 32 793 32 "></polygon>
        </g>
    </g>
</svg>