<?xml version="1.0" encoding="UTF-8" standalone="no"?>
<svg width="147px" height="150px" viewBox="0 0 147 150" version="1.1" xmlns="http://www.w3.org/2000/svg" xmlns:xlink="http://www.w3.org/1999/xlink" xmlns:sketch="http://www.bohemiancoding.com/sketch/ns">
    <!-- Generator: Sketch 3.3.3 (12072) - http://www.bohemiancoding.com/sketch -->
    <title>logo</title>
    <desc>Created with Sketch.</desc>
    <defs></defs>
    <g id="Page-1" stroke="none" stroke-width="1" fill="none" fill-rule="evenodd" sketch:type="MSPage">
        <g id="logo" sketch:type="MSLayerGroup" fill="#000000">
            <g id="Page-1" sketch:type="MSShapeGroup">
                <g id="Group">
                    <rect id="Rectangle-2" x="0" y="0" width="8" height="150"></rect>
                    <rect id="Rectangle-2-Copy" x="63" y="0" width="8" height="150"></rect>
                    <g id="Rectangle-2-Copy-4-+-Rectangle-2-Copy-7-+-Rectangle-2-Copy-4-+-Rectangle-2-Copy-7-Copy" transform="translate(63.000000, 0.000000)">
                        <g id="Rectangle-2-Copy-4-+-Rectangle-2-Copy-7">
                            <path d="M35.5117073,65.4797288 L39.4986912,74.9690208 L35.5117073,84.4504769 L31.5247234,74.9690208 L35.5117073,65.4797288 L35.5117073,65.4797288 Z" id="Rectangle-2-Copy-4"></path>
                            <path d="M35.5117073,65.4797288 L8,0 L0,0 L31.5247234,74.9690208 L0,150 L7.94791412,150 L35.5117073,84.4504769" id="Rectangle-2-Copy-7"></path>
                        </g>
                        <g id="Rectangle-2-Copy-4-+-Rectangle-2-Copy-7-Copy" transform="translate(64.000000, 75.000000) scale(-1, 1) translate(-64.000000, -75.000000) translate(44.000000, 0.000000)">
                            <path d="M35.5117073,65.4797288 L39.4986912,74.9690208 L35.5117073,84.4504769 L31.5247234,74.9690208 L35.5117073,65.4797288 L35.5117073,65.4797288 Z" id="Rectangle-2-Copy-4"></path>
                            <path d="M35.5117073,65.4797288 L8,0 L0,0 L31.5247234,74.9690208 L0,150 L7.94791412,150 L35.5117073,84.4504769" id="Rectangle-2-Copy-7"></path>
                        </g>
                    </g>
                </g>
            </g>
        </g>
    </g>
</svg>